 <svg id="acce7670-904f-4f8c-b867-68138c2f8c06" data-name="Layer 1" xmlns="http://www.w3.org/2000/svg" viewBox="0 0 1019 467"><title>404_bg</title><path d="M962.794,62.029a11.471,11.471,0,0,1-.656-22.923h0a11.471,11.471,0,0,1,1.327,22.9C963.24,62.023,963.017,62.029,962.794,62.029ZM962.253,41.1a9.47,9.47,0,1,0,10,8.906,9.481,9.481,0,0,0-10-8.906Z" fill="#1e6d7a"></path><path d="M974.934,40.4a1,1,0,0,1-.836-.45,10.049,10.049,0,0,0-9.688-4.276A1,1,0,0,1,964.1,33.7a11.952,11.952,0,0,1,11.67,5.153,1,1,0,0,1-.834,1.549Z" fill="#1e6d7a"></path><path d="M273.605,61.8a9.971,9.971,0,0,1-7.251-3.106h0a10.012,10.012,0,1,1,7.251,3.106Zm0-17.991a8,8,0,0,0-5.8,13.507h0a8,8,0,1,0,5.8-13.507Z" fill="#226d7a"></path><path d="M26.007,453q-.131,0-.261,0a10.019,10.019,0,1,1,.261,0ZM26,435a8.042,8.042,0,1,0,.208,0C26.134,435,26.064,435,26,435Z" fill="#226d7a"></path><path d="M750.007,467q-.13,0-.261,0a9.933,9.933,0,0,1-6.994-3.108h0a10,10,0,1,1,7.255,3.11Zm-.013-18a8,8,0,0,0-5.793,13.511h0a8,8,0,1,0,6-13.509C750.134,449,750.063,449,749.994,449Z" fill="#226d7a"></path><path d="M292.416,254.312a1.013,1.013,0,0,1-.417-.09L266.634,242.6a1,1,0,0,1-.191-1.7L287.2,225a1,1,0,0,1,1.594.629l4.607,27.516a1,1,0,0,1-.986,1.165Zm-23.437-12.835,22.139,10.141L287.1,227.6Z" fill="#226d7a"></path><path d="M773.316,228.33a1,1,0,0,1-1-1.022l.571-26.14a1,1,0,0,1,1.487-.851l24.356,13.607a1,1,0,0,1-.038,1.767l-24.926,12.532A1.006,1.006,0,0,1,773.316,228.33Zm1.535-25.456-.5,22.815,21.756-10.938Z" fill="#226d7a"></path><path d="M136.509,150.348l-2.39-8.09a7.115,7.115,0,1,0-1.9.629l2.372,8.028a1,1,0,0,0,.959.717,1,1,0,0,0,.959-1.284ZM126,136a5,5,0,1,1,5,5A5.006,5.006,0,0,1,126,136Z" fill="#226d7a"></path><path d="M137.141,159.545l2.55,8.632a1,1,0,0,0,.959.717,1.037,1.037,0,0,0,.284-.041,1,1,0,0,0,.675-1.243l-2.55-8.631a1,1,0,0,0-1.918.566Z" fill="#226d7a"></path><path d="M129.751,208.226l-6.265,6.461a1,1,0,0,0,1.436,1.393l6.265-6.461a1,1,0,0,0-1.436-1.393Z" fill="#226d7a"></path><path d="M92.076,230.463l7.936,2.293c0,.082-.012.162-.012.244a7,7,0,1,0,12.587-4.2l6.07-6.259a1,1,0,1,0-1.436-1.393l-6.052,6.242a6.978,6.978,0,0,0-10.8,3.386l-7.737-2.235a1,1,0,0,0-.555,1.922ZM107,228a5,5,0,1,1-5,5A5.006,5.006,0,0,1,107,228Z" fill="#226d7a"></path><path d="M74.783,225.467l8.647,2.5a.989.989,0,0,0,.278.04,1,1,0,0,0,.276-1.962l-8.646-2.5a1,1,0,0,0-.555,1.922Z" fill="#226d7a"></path><path d="M28.617,241.8a1,1,0,0,0,.7-.282l6.461-6.266a1,1,0,0,0-1.393-1.436l-6.461,6.266a1,1,0,0,0,.7,1.718Z" fill="#226d7a"></path><path d="M19.257,291.006a1,1,0,0,0,.964-1.269L17.8,281.069a1,1,0,0,0-1.927.537l2.419,8.668A1,1,0,0,0,19.257,291.006Z" fill="#226d7a"></path><path d="M13.216,264.635a6.979,6.979,0,0,0,3.394-10.8l6.242-6.052a1,1,0,1,0-1.393-1.435L15.2,252.413A7,7,0,1,0,11,265c.08,0,.158-.009.237-.012l2.219,7.95a1,1,0,0,0,1.927-.538ZM6,258a5,5,0,1,1,5,5A5.006,5.006,0,0,1,6,258Z" fill="#226d7a"></path><path d="M39.924,315.537l-7.936-2.293c0-.082.012-.162.012-.244a7.008,7.008,0,0,0-7-7c-.08,0-.158.009-.237.012l-2.123-7.606a1,1,0,0,0-1.927.537l2.072,7.422a7,7,0,1,0,8.847,8.859l7.737,2.235a1.025,1.025,0,0,0,.278.039,1,1,0,0,0,.277-1.961ZM25,318a5,5,0,1,1,5-5A5.006,5.006,0,0,1,25,318Z" fill="#226d7a"></path><path d="M57.217,320.532l-8.647-2.5a1,1,0,1,0-.554,1.922l8.646,2.5a1.03,1.03,0,0,0,.278.039,1,1,0,0,0,.277-1.961Z" fill="#226d7a"></path><path d="M90.765,317.017,84.592,323a6.975,6.975,0,0,0-9.76,2.693.984.984,0,0,0-.323-.168l-8.646-2.5a1,1,0,0,0-.554,1.922l8.646,2.5a1,1,0,0,0,.216.031,7,7,0,1,0,11.98-3.2l6.006-5.825a1,1,0,1,0-1.392-1.435ZM81,334a5,5,0,1,1,5-5A5.006,5.006,0,0,1,81,334Z" fill="#226d7a"></path><path d="M103.687,304.486l-6.461,6.266a1,1,0,0,0,1.393,1.436l6.461-6.266a1,1,0,0,0-1.393-1.436Z" fill="#226d7a"></path><path d="M147,184c-.182,0-.361.014-.54.027l-2.3-7.786a1,1,0,1,0-1.918.567l2.263,7.66a6.977,6.977,0,0,0-2.643,11.269l-5.845,6.028a1,1,0,1,0,1.436,1.392L143.419,197A7,7,0,1,0,147,184Zm0,12a4.995,4.995,0,0,1-1.121-9.863,1.033,1.033,0,0,0,.155-.022c.015,0,.025-.016.04-.021A5,5,0,1,1,147,196Z" fill="#226d7a"></path><path d="M52,224a7,7,0,0,0,5.984-3.386l8.153,2.356a1.025,1.025,0,0,0,.278.039,1,1,0,0,0,.276-1.961l-7.924-2.29a7,7,0,1,0-11.918,2.965l-6.006,5.824a1,1,0,1,0,1.392,1.436L48.408,223A6.952,6.952,0,0,0,52,224Zm0-12a5,5,0,1,1-5,5A5.006,5.006,0,0,1,52,212Z" fill="#226d7a"></path><path d="M122,281a6.984,6.984,0,0,0-1.218.113l-2.362-8.03a1,1,0,0,0-1.919.564l2.381,8.1a6.972,6.972,0,0,0-2.492,10.427l-6.242,6.052a1,1,0,0,0,1.393,1.435l6.259-6.069A7,7,0,1,0,122,281Zm0,12a5,5,0,1,1,5-5A5.006,5.006,0,0,1,122,293Z" fill="#226d7a"></path><path d="M121,260a7,7,0,1,0-7,7A7.008,7.008,0,0,0,121,260Zm-12,0a5,5,0,1,1,5,5A5.006,5.006,0,0,1,109,260Z" fill="#226d7a"></path><path d="M886.983,162.773a1,1,0,0,0,.951-1.311l-2.8-8.555a1,1,0,0,0-1.9.621l2.8,8.555A1,1,0,0,0,886.983,162.773Z" fill="#226d7a"></path><path d="M879.544,135.8a1,1,0,1,0-1.9.621l2.795,8.555a1,1,0,0,0,.951.69,1,1,0,0,0,.95-1.311Z" fill="#226d7a"></path><path d="M904.543,181l-7.442-3.582a7.032,7.032,0,1,0-1.252,1.616l7.827,3.768a.981.981,0,0,0,.432.1,1,1,0,0,0,.435-1.9ZM891,179a5,5,0,1,1,5-5A5.006,5.006,0,0,1,891,179Z" fill="#226d7a"></path><path d="M956.292,179.469a6.477,6.477,0,0,0,9.659-.268l6.739,4.9a1,1,0,1,0,1.176-1.617L967,177.492a6.5,6.5,0,1,0-11.811.4,1.064,1.064,0,0,0-.121.039l-7.852,4.4a1,1,0,0,0,.976,1.745l7.853-4.4A.985.985,0,0,0,956.292,179.469ZM961,170.5a4.5,4.5,0,1,1-4.5,4.5A4.505,4.505,0,0,1,961,170.5Z" fill="#226d7a"></path><path d="M987.248,194.689a1,1,0,1,0,1.176-1.617l-7.278-5.294a1,1,0,0,0-1.176,1.618Z" fill="#226d7a"></path><path d="M995.7,198.366a1,1,0,0,0-1.176,1.617l7.28,5.293a.986.986,0,0,0,.587.192,1,1,0,0,0,.588-1.809Z" fill="#226d7a"></path><path d="M1002.5,232.72a1,1,0,0,0-1.366.365l-4.5,7.793a1,1,0,1,0,1.732,1l4.5-7.792A1,1,0,0,0,1002.5,232.72Z" fill="#226d7a"></path><path d="M993.49,248.305a1,1,0,0,0-1.366.366l-4.5,7.793a1,1,0,0,0,1.733,1l4.5-7.793A1,1,0,0,0,993.49,248.305Z" fill="#226d7a"></path><path d="M951.8,226.4a1,1,0,0,0-1.6,1.2l5.4,7.2a1,1,0,1,0,1.6-1.2Z" fill="#226d7a"></path><path d="M962.6,240.8A1,1,0,0,0,961,242l5.4,7.2A1,1,0,0,0,968,248Z" fill="#226d7a"></path><path d="M931.091,198.789a6.943,6.943,0,0,0,1.777-6.129l7.473-4.185a1,1,0,1,0-.977-1.745l-7.172,4.016a6.988,6.988,0,0,0-11.127-1.7.981.981,0,0,0-.3-.23l-8.11-3.9a1,1,0,1,0-.867,1.8l8.1,3.9a6.988,6.988,0,0,0,9.645,9.428L934,206a1,1,0,0,0,1.6-1.2ZM921,194a5,5,0,1,1,5,5A5.006,5.006,0,0,1,921,194Z" fill="#226d7a"></path><path d="M941,212a1,1,0,0,0-1.6,1.2l5.4,7.2a1,1,0,1,0,1.6-1.2Z" fill="#226d7a"></path><path d="M876.837,80.654l-1.7,7.937a1,1,0,0,0,.767,1.187,1.029,1.029,0,0,0,.211.022,1,1,0,0,0,.977-.79l1.718-8.02c.064,0,.126.01.19.01a7.013,7.013,0,1,0-2.163-.346ZM879,69a5,5,0,1,1-5,5A5.006,5.006,0,0,1,879,69Z" fill="#226d7a"></path><path d="M879,113a7.012,7.012,0,0,0-5.58-6.855l1.786-8.335a1,1,0,0,0-1.955-.419L871.4,106.03A7,7,0,0,0,872,120c.091,0,.18-.01.271-.014l2.576,7.879a1,1,0,0,0,.95.69.985.985,0,0,0,.31-.05,1,1,0,0,0,.64-1.261l-2.492-7.624A7.007,7.007,0,0,0,879,113Zm-7,5a5,5,0,1,1,5-5A5.006,5.006,0,0,1,872,118Z" fill="#226d7a"></path><path d="M1012,205a7,7,0,0,0-2.469,13.542l-3.9,6.75a1,1,0,1,0,1.732,1l4.227-7.314c.136.008.271.021.41.021a7,7,0,0,0,0-14Zm0,12a5,5,0,1,1,5-5A5.006,5.006,0,0,1,1012,217Z" fill="#226d7a"></path><path d="M982,261a6.941,6.941,0,0,0-3.527.964L973.4,255.2a1,1,0,1,0-1.6,1.2l5.109,6.812A6.99,6.99,0,1,0,982,261Zm0,12a5,5,0,1,1,5-5A5.006,5.006,0,0,1,982,273Z" fill="#226d7a"></path><path d="M19,32H11V24a1,1,0,0,0-2,0v8H1a1,1,0,0,0,0,2H9v8a1,1,0,0,0,2,0V34h8a1,1,0,0,0,0-2Z" fill="#206d7a"></path><path d="M219,447h-8v-8a1,1,0,0,0-2,0v8h-8a1,1,0,0,0,0,2h8v8a1,1,0,0,0,2,0v-8h8a1,1,0,0,0,0-2Z" fill="#206d7a"></path><path d="M984,414h-8v-8a1,1,0,0,0-2,0v8h-8a1,1,0,0,0,0,2h8v8a1,1,0,0,0,2,0v-8h8a1,1,0,0,0,0-2Z" fill="#206d7a"></path><path d="M800,9h-8V1a1,1,0,0,0-2,0V9h-8a1,1,0,0,0,0,2h8v8a1,1,0,0,0,2,0V11h8a1,1,0,0,0,0-2Z" fill="#206d7a"></path></svg>